<?xml version="1.0" encoding="UTF-8" standalone="no"?>
<!-- Generator: Adobe Illustrator 16.0.0, SVG Export Plug-In . SVG Version: 6.00 Build 0)  -->

<svg
   xmlns:dc="http://purl.org/dc/elements/1.1/"
   xmlns:cc="http://creativecommons.org/ns#"
   xmlns:rdf="http://www.w3.org/1999/02/22-rdf-syntax-ns#"
   xmlns:svg="http://www.w3.org/2000/svg"
   xmlns="http://www.w3.org/2000/svg"
   xmlns:sodipodi="http://sodipodi.sourceforge.net/DTD/sodipodi-0.dtd"
   xmlns:inkscape="http://www.inkscape.org/namespaces/inkscape"
   version="1.1"
   id="Layer_1"
   x="0px"
   y="0px"
   width="200"
   height="200"
   viewBox="0 0 200 200"
   enable-background="new 0 0 64 64"
   xml:space="preserve"
   inkscape:version="0.48.3.1 r9886"
   sodipodi:docname="scissors9.svg"><metadata
   id="metadata9"><rdf:RDF><cc:Work
       rdf:about=""><dc:format>image/svg+xml</dc:format><dc:type
         rdf:resource="http://purl.org/dc/dcmitype/StillImage" /></cc:Work></rdf:RDF></metadata><defs
   id="defs7" /><sodipodi:namedview
   pagecolor="#ffffff"
   bordercolor="#666666"
   borderopacity="1"
   objecttolerance="10"
   gridtolerance="10"
   guidetolerance="10"
   inkscape:pageopacity="0"
   inkscape:pageshadow="2"
   inkscape:window-width="1315"
   inkscape:window-height="744"
   id="namedview5"
   showgrid="true"
   inkscape:zoom="2.6074563"
   inkscape:cx="112.52929"
   inkscape:cy="72.176294"
   inkscape:window-x="51"
   inkscape:window-y="24"
   inkscape:window-maximized="1"
   inkscape:current-layer="Layer_1"><inkscape:grid
     type="xygrid"
     id="grid2986"
     empspacing="5"
     visible="true"
     enabled="true"
     snapvisiblegridlinesonly="true" /></sodipodi:namedview>
<path
   d="m 166.55943,136.70072 c -4.92325,-7.24562 -12.76354,-12.55363 -21.52052,-14.5729 -5.95711,-1.37588 -12.005,-1.11852 -17.26799,0.69289 L 112.33342,100 c 13.71832,-21.281516 34.04099,-52.768258 36.60659,-56.554388 6.27047,-9.264882 -4.02413,-19.549298 -4.46636,-19.979877 L 141.48339,20.53334 100.02384,81.804305 58.561375,20.538289 55.571109,23.470684 c -0.445173,0.430579 -10.739767,10.714996 -4.46929,19.979878 2.562666,3.783655 22.888266,35.270398 36.609512,56.554378 L 72.270903,122.82566 C 67.004991,121.01425 60.960029,120.7569 55,122.13278 c -8.754065,2.01678 -16.597288,7.32726 -21.517606,14.57288 -9.2461,13.65728 -5.517787,30.20737 8.305966,36.89125 3.860106,1.87575 8.139025,2.82847 12.716679,2.82847 2.512877,0 5.125332,-0.16827 7.608922,-0.88096 14.819529,-4.26125 22.410877,-14.49864 26.045472,-25.00577 0.155224,-0.45039 7.468339,-25.48586 11.551035,-30.93987 0,0 0.125941,-0.1955 0.313372,-0.48749 0.18452,0.29199 0.31338,0.48749 0.31338,0.48749 4.08269,5.45401 11.39581,30.48948 11.55105,30.93987 3.63165,10.50713 11.22591,20.747 26.04546,25.00577 2.48358,0.71269 5.09311,0.88096 7.60891,0.88096 4.57764,0 8.85365,-0.95272 12.71669,-2.82847 13.81788,-6.68882 17.54328,-23.23891 8.3001,-36.89619 z m -94.891852,18.48026 c -3.06934,4.52604 -7.998445,7.94345 -13.16185,9.12878 -1.358946,0.30933 -2.697389,0.4677 -3.980188,0.4677 -2.143853,0 -4.120767,-0.44048 -5.872164,-1.28927 -7.231112,-3.48917 -8.672062,-12.91738 -3.201136,-21.00434 3.1162,-4.5879 7.91644,-7.90883 13.153064,-9.11394 3.576018,-0.81909 7.037814,-0.55679 9.872855,0.81165 7.225254,3.50156 8.657416,12.92235 3.189419,20.99942 z m 79.717952,8.30969 c -1.75434,0.84878 -3.72832,1.28926 -5.87217,1.28926 -1.2828,0 -2.62418,-0.15837 -3.98019,-0.46769 -5.1634,-1.18533 -10.09251,-4.60275 -13.16185,-9.12879 -5.468,-8.07707 -4.03584,-17.49785 3.1865,-20.99445 2.83797,-1.36845 6.29682,-1.63075 9.87285,-0.81167 5.23955,1.20265 10.03979,4.52603 13.15307,9.11393 5.47384,8.0845 4.0329,17.51024 -3.19821,20.99941 z"
   id="path3"
   inkscape:connector-curvature="0" />
</svg>