<?xml version="1.0" encoding="UTF-8" standalone="no"?>
<!-- Created with Inkscape (http://www.inkscape.org/) -->

<svg
   xmlns:dc="http://purl.org/dc/elements/1.1/"
   xmlns:cc="http://creativecommons.org/ns#"
   xmlns:rdf="http://www.w3.org/1999/02/22-rdf-syntax-ns#"
   xmlns:svg="http://www.w3.org/2000/svg"
   xmlns="http://www.w3.org/2000/svg"
   xmlns:sodipodi="http://sodipodi.sourceforge.net/DTD/sodipodi-0.dtd"
   xmlns:inkscape="http://www.inkscape.org/namespaces/inkscape"
   width="200"
   height="200"
   id="svg2"
   version="1.1"
   inkscape:version="0.48.3.1 r9886"
   sodipodi:docname="paste-3.svg">
  <defs
     id="defs4">
    <clipPath
       clipPathUnits="userSpaceOnUse"
       id="clipPath3911">
      <path
         inkscape:connector-curvature="0"
         id="path3913"
         d="m 11.324757,868.12772 -4.4194176,132.30628 70.7106756,-0.5524 -0.552427,-95.01747 44.470382,0.27621 1.10486,-40.60339 -109.656792,2.48592 z"
         style="fill:none;stroke:#000000;stroke-width:1px;stroke-linecap:butt;stroke-linejoin:miter;stroke-opacity:1" />
    </clipPath>
    <clipPath
       clipPathUnits="userSpaceOnUse"
       id="clipPath3915">
      <path
         inkscape:connector-curvature="0"
         id="path3917"
         d="m 11.324757,868.12772 -4.4194176,132.30628 70.7106756,-0.5524 -0.552427,-95.01747 44.470382,0.27621 1.10486,-40.60339 -109.656792,2.48592 z"
         style="fill:none;stroke:#000000;stroke-width:1px;stroke-linecap:butt;stroke-linejoin:miter;stroke-opacity:1" />
    </clipPath>
    <clipPath
       clipPathUnits="userSpaceOnUse"
       id="clipPath3919">
      <path
         inkscape:connector-curvature="0"
         id="path3921"
         d="m 11.324757,868.12772 -4.4194176,132.30628 70.7106756,-0.5524 -0.552427,-95.01747 44.470382,0.27621 1.10486,-40.60339 -109.656792,2.48592 z"
         style="fill:none;stroke:#000000;stroke-width:1px;stroke-linecap:butt;stroke-linejoin:miter;stroke-opacity:1" />
    </clipPath>
    <clipPath
       clipPathUnits="userSpaceOnUse"
       id="clipPath3923">
      <path
         inkscape:connector-curvature="0"
         id="path3925"
         d="m 11.324757,868.12772 -4.4194176,132.30628 70.7106756,-0.5524 -0.552427,-95.01747 44.470382,0.27621 1.10486,-40.60339 -109.656792,2.48592 z"
         style="fill:none;stroke:#000000;stroke-width:1px;stroke-linecap:butt;stroke-linejoin:miter;stroke-opacity:1" />
    </clipPath>
    <clipPath
       clipPathUnits="userSpaceOnUse"
       id="clipPath3927">
      <path
         inkscape:connector-curvature="0"
         id="path3929"
         d="m 11.324757,868.12772 -4.4194176,132.30628 70.7106756,-0.5524 -0.552427,-95.01747 44.470382,0.27621 1.10486,-40.60339 -109.656792,2.48592 z"
         style="fill:none;stroke:#000000;stroke-width:1px;stroke-linecap:butt;stroke-linejoin:miter;stroke-opacity:1" />
    </clipPath>
    <clipPath
       clipPathUnits="userSpaceOnUse"
       id="clipPath4056">
      <path
         sodipodi:nodetypes="cccccccc"
         inkscape:connector-curvature="0"
         id="path4058"
         d="m 11.324757,868.12772 -4.4194176,132.30628 56.9220936,-0.5524 -0.198569,-94.86397 57.905106,0.12271 1.10486,-40.60339 -109.656792,2.48592 z"
         style="fill:none;stroke:#f4c234;stroke-width:1px;stroke-linecap:butt;stroke-linejoin:miter;stroke-opacity:1" />
    </clipPath>
    <clipPath
       clipPathUnits="userSpaceOnUse"
       id="clipPath4056-5">
      <path
         sodipodi:nodetypes="cccccccc"
         inkscape:connector-curvature="0"
         id="path4058-2"
         d="m 11.324757,868.12772 -4.4194176,132.30628 56.9220936,-0.5524 -0.198569,-94.86397 57.905106,0.12271 1.10486,-40.60339 -109.656792,2.48592 z"
         style="fill:none;stroke:#f4c234;stroke-width:1px;stroke-linecap:butt;stroke-linejoin:miter;stroke-opacity:1" />
    </clipPath>
  </defs>
  <sodipodi:namedview
     id="base"
     pagecolor="#ffffff"
     bordercolor="#666666"
     borderopacity="1.0"
     inkscape:pageopacity="0.0"
     inkscape:pageshadow="2"
     inkscape:zoom="4"
     inkscape:cx="78.052387"
     inkscape:cy="100.75767"
     inkscape:document-units="px"
     inkscape:current-layer="layer1"
     showgrid="true"
     inkscape:snap-global="false"
     inkscape:window-width="1315"
     inkscape:window-height="744"
     inkscape:window-x="51"
     inkscape:window-y="24"
     inkscape:window-maximized="1">
    <inkscape:grid
       empspacing="5"
       visible="true"
       enabled="true"
       snapvisiblegridlinesonly="true"
       type="xygrid"
       id="grid2985" />
  </sodipodi:namedview>
  <metadata
     id="metadata7">
    <rdf:RDF>
      <cc:Work
         rdf:about="">
        <dc:format>image/svg+xml</dc:format>
        <dc:type
           rdf:resource="http://purl.org/dc/dcmitype/StillImage" />
        <dc:title></dc:title>
      </cc:Work>
    </rdf:RDF>
  </metadata>
  <g
     inkscape:label="Layer 1"
     inkscape:groupmode="layer"
     id="layer1"
     transform="translate(0,-852.36218)">
    <rect
       style="fill:none;stroke:#000000;stroke-width:5.41602135;stroke-linecap:round;stroke-linejoin:miter;stroke-miterlimit:4;stroke-opacity:1;stroke-dasharray:none"
       id="rect3877-5"
       width="80.893333"
       height="102.94953"
       x="83.607674"
       y="919.77722"
       rx="0" />
    <rect
       style="fill:#000000;fill-opacity:1;stroke:#000000;stroke-width:6;stroke-linecap:round;stroke-linejoin:miter;stroke-miterlimit:4;stroke-opacity:1;stroke-dasharray:none"
       id="rect3877-1"
       width="86.6726"
       height="117.9226"
       x="21.898073"
       y="874.26025"
       rx="6.3639612"
       clip-path="url(#clipPath4056-5)"
       ry="4.2426405"
       transform="matrix(1.1046441,0,0,1.1057784,-246.71614,-94.832461)" />
    <rect
       style="fill:#eeeeee;stroke:#f4c234;stroke-width:1;stroke-linecap:round;stroke-linejoin:miter;stroke-miterlimit:4;stroke-opacity:1;stroke-dasharray:none;fill-opacity:1"
       id="rect4158"
       width="64.346718"
       height="10.606602"
       x="-208.5965"
       y="24.63752"
       transform="translate(0,852.36218)"
       rx="7.029912"
       ry="4.6914201" />
    <path
       style="fill:#080800;fill-opacity:1;stroke:#000000;stroke-width:1px;stroke-linecap:butt;stroke-linejoin:miter;stroke-opacity:1"
       d="m 27.918369,885.095 0,121.4456 c -0.0909,3.8426 1.5944,6.0815 5.83363,6.0104 l 43.663848,-0.3536 -0.530327,-117.20322 -27.046843,3.2e-4 c -2.898215,-0.22379 -5.310359,-1.12386 -5.524271,-5.08234 0.154613,-2.74093 1.426821,-4.66517 4.640391,-5.17071 l 27.40039,0 0,-8.66206 -41.542518,0.17678 c -4.8322,0.65352 -7.01126,3.7075 -6.8943,8.83883 z"
       id="path4160"
       inkscape:connector-curvature="0"
       sodipodi:nodetypes="cccccccccccc" />
    <path
       style="fill:#080800;fill-opacity:1;stroke:#000000;stroke-width:1px;stroke-linecap:butt;stroke-linejoin:miter;stroke-opacity:1"
       d="m 77.415847,913.37927 53.563333,0.17678 -0.17678,-29.87526 c 0.34244,-4.81156 -1.663,-7.631 -6.81788,-7.77818 l -46.669045,0.17678 -0.02248,8.66206 27.876785,0 c 2.99939,0.21182 4.93794,1.41723 5.3033,4.94975 -0.26631,4.50656 -2.50277,5.18337 -5.12652,5.48008 l -27.730565,-0.2001 z"
       id="path4162"
       inkscape:connector-curvature="0"
       sodipodi:nodetypes="ccccccccccc" />
  </g>
</svg>
